<svg xmlns="http://www.w3.org/2000/svg" viewBox="0 0 1000 667" width="1000" height="667" role="img" aria-labelledby="title desc"><defs><radialGradient id="bg"><stop stop-color="#133b52"/><stop offset="1" stop-color="#071322"/></radialGradient><pattern id="grid" width="50" height="50" patternUnits="userSpaceOnUse"><path d="M50 0H0V50" fill="none" stroke="#a8d4f3" stroke-opacity=".045"/></pattern><marker id="arrow" markerWidth="8" markerHeight="8" refX="6" refY="3" orient="auto" markerUnits="strokeWidth"><path d="M0 0L6 3L0 6" fill="none" stroke="context-stroke" stroke-width="1.6"/></marker></defs><title id="title">MaMMoS · linking magnetic length scales</title><desc id="desc">Electronic structure → atomistic spins → micromagnetics. Conceptual illustration, not a figure or quantitative result from the publication.</desc><rect width="1000" height="667" fill="url(#bg)"/><rect width="1000" height="667" fill="url(#grid)"/><text x="55" y="68" fill="#a8d4f3" font-size="28" text-anchor="start" font-family="Arial, sans-serif">MaMMoS · linking magnetic length scales</text><rect x="65" y="165" width="245" height="290" rx="18" fill="#52a8ef" fill-opacity=".05" stroke="#52a8ef" stroke-opacity=".6"/><text x="187" y="420" fill="#52a8ef" font-size="22" text-anchor="middle" font-family="Arial, sans-serif">Electronic structure</text><circle cx="130" cy="230" r="10" fill="#52a8ef"/><circle cx="130" cy="280" r="10" fill="#52a8ef"/><circle cx="130" cy="330" r="10" fill="#52a8ef"/><circle cx="188" cy="230" r="10" fill="#52a8ef"/><circle cx="188" cy="280" r="10" fill="#52a8ef"/><circle cx="188" cy="330" r="10" fill="#52a8ef"/><circle cx="246" cy="230" r="10" fill="#52a8ef"/><circle cx="246" cy="280" r="10" fill="#52a8ef"/><circle cx="246" cy="330" r="10" fill="#52a8ef"/><ellipse cx="187" cy="280" rx="90" ry="45" fill="none" stroke="#52a8ef" transform="rotate(-30 187 280)"/><line x1="327" y1="302" x2="362.0" y2="302.0" stroke="#a8d4f3" stroke-width="4" marker-end="url(#arrow)"/><rect x="380" y="165" width="245" height="290" rx="18" fill="#6ce2c8" fill-opacity=".05" stroke="#6ce2c8" stroke-opacity=".6"/><text x="502" y="420" fill="#6ce2c8" font-size="22" text-anchor="middle" font-family="Arial, sans-serif">Atomistic spins</text><line x1="425" y1="235" x2="425.0" y2="205.0" stroke="#6ce2c8" stroke-width="4" marker-end="url(#arrow)"/><line x1="425" y1="285" x2="425.0" y2="255.0" stroke="#6ce2c8" stroke-width="4" marker-end="url(#arrow)"/><line x1="425" y1="335" x2="425.0" y2="305.0" stroke="#6ce2c8" stroke-width="4" marker-end="url(#arrow)"/><line x1="485" y1="235" x2="490.9600799238518" y2="205.59800266476276" stroke="#6ce2c8" stroke-width="4" marker-end="url(#arrow)"/><line x1="485" y1="285" x2="490.9600799238518" y2="255.59800266476276" stroke="#6ce2c8" stroke-width="4" marker-end="url(#arrow)"/><line x1="485" y1="335" x2="490.9600799238518" y2="305.59800266476276" stroke="#6ce2c8" stroke-width="4" marker-end="url(#arrow)"/><line x1="545" y1="235" x2="556.6825502692595" y2="207.36817017991345" stroke="#6ce2c8" stroke-width="4" marker-end="url(#arrow)"/><line x1="545" y1="285" x2="556.6825502692595" y2="257.3681701799135" stroke="#6ce2c8" stroke-width="4" marker-end="url(#arrow)"/><line x1="545" y1="335" x2="556.6825502692595" y2="307.3681701799135" stroke="#6ce2c8" stroke-width="4" marker-end="url(#arrow)"/><line x1="642" y1="302" x2="677.0" y2="302.0" stroke="#a8d4f3" stroke-width="4" marker-end="url(#arrow)"/><rect x="695" y="165" width="245" height="290" rx="18" fill="#ffc878" fill-opacity=".05" stroke="#ffc878" stroke-opacity=".6"/><text x="817" y="420" fill="#ffc878" font-size="22" text-anchor="middle" font-family="Arial, sans-serif">Micromagnetics</text><rect x="725" y="220" width="58" height="135" fill="#ffc878" fill-opacity="0.12"/><line x1="754" y1="310" x2="754.0" y2="262.0" stroke="#ffc878" stroke-width="4" marker-end="url(#arrow)"/><rect x="787" y="220" width="58" height="135" fill="#ffc878" fill-opacity="0.22"/><line x1="816" y1="310" x2="816.0" y2="358.0" stroke="#ffc878" stroke-width="4" marker-end="url(#arrow)"/><rect x="849" y="220" width="58" height="135" fill="#ffc878" fill-opacity="0.32"/><line x1="878" y1="310" x2="878.0" y2="262.0" stroke="#ffc878" stroke-width="4" marker-end="url(#arrow)"/><line x1="55" y1="568" x2="945" y2="568" stroke="#a8d4f3" stroke-width="1" /><text x="55" y="610" fill="#a8d4f3" font-size="17" text-anchor="start" font-family="Arial, sans-serif">CONCEPTUAL ILLUSTRATION · MAMMOS</text></svg>
